<svg width="194" height="153" viewBox="0 0 194 153" fill="none" xmlns="http://www.w3.org/2000/svg">
<path d="M9.52494 111.263H3.37416V94.7532H9.52494C14.192 94.7532 16.1343 97.1541 16.1343 103.143C16.1343 108.781 14.2999 111.263 9.52494 111.263ZM4.93883 96.129V109.941H9.22819C12.8431 109.941 14.5966 108.7 14.5966 103.143C14.5966 98.9346 13.9762 96.129 9.22819 96.129H4.93883ZM25.8493 111.533C21.452 111.533 19.5906 109.429 19.5906 105.112C19.5906 101.255 21.1822 98.8537 25.1748 98.8537C28.6009 98.8537 30.1656 100.958 30.1656 103.791V105.895H21.0473C21.1822 108.943 22.5041 110.4 26.2 110.4C27.306 110.4 28.3851 110.157 29.4102 109.752V110.859C28.3312 111.29 27.1442 111.533 25.8493 111.533ZM21.0473 104.789H28.7898V103.656C28.7898 101.444 27.7377 99.9867 25.2018 99.9867C22.0455 99.9867 21.0473 101.929 21.0473 104.789ZM38.6849 111.263H36.8774L32.1834 99.1235H33.802L37.7677 109.86L41.7873 99.1235H43.3519L38.6849 111.263ZM51.6145 111.533C47.2173 111.533 45.3558 109.429 45.3558 105.112C45.3558 101.255 46.9475 98.8537 50.9401 98.8537C54.3662 98.8537 55.9309 100.958 55.9309 103.791V105.895H46.8126C46.9475 108.943 48.2694 110.4 51.9652 110.4C53.0713 110.4 54.1504 110.157 55.1755 109.752V110.859C54.0964 111.29 52.9094 111.533 51.6145 111.533ZM46.8126 104.789H54.555V103.656C54.555 101.444 53.5029 99.9867 50.9671 99.9867C47.8107 99.9867 46.8126 101.929 46.8126 104.789ZM62.2296 111.533C60.7728 111.533 59.9365 110.832 59.9365 108.889V93.9978H61.5012V108.835C61.5012 109.914 61.798 110.238 62.4994 110.238C62.904 110.238 63.2817 110.211 63.6054 110.103V111.317C63.1738 111.479 62.6343 111.533 62.2296 111.533ZM72.3102 111.533C68.2906 111.533 66.5371 109.348 66.5371 105.193C66.5371 101.039 68.2906 98.8537 72.3102 98.8537C76.3298 98.8537 78.0563 101.039 78.0563 105.193C78.0563 109.348 76.3837 111.533 72.3102 111.533ZM72.3102 110.238C75.4126 110.238 76.5726 108.565 76.5726 105.193C76.5726 101.794 75.4126 100.149 72.3102 100.149C69.2618 100.149 68.1018 101.794 68.1018 105.193C68.1018 108.565 69.2078 110.238 72.3102 110.238ZM83.6045 116.74H82.0399V99.1235H83.3348L83.4697 100.472C84.6027 99.3393 85.9246 98.8537 87.732 98.8537C91.1312 98.8537 93.1005 100.688 93.1005 105.085C93.1005 108.889 91.4819 111.533 87.5702 111.533C85.8976 111.533 84.7106 111.101 83.6045 110.292V116.74ZM87.1925 110.238C90.106 110.238 91.6168 108.619 91.6168 105.112C91.6168 101.713 90.3758 100.149 87.3544 100.149C85.8436 100.149 84.5757 100.661 83.6045 101.713V108.943C84.5218 109.699 85.5739 110.238 87.1925 110.238ZM98.5665 111.263H97.0828V99.1235H98.4316L98.5665 100.553C99.8884 99.4742 101.372 98.8537 102.991 98.8537C104.852 98.8537 105.769 99.5012 106.255 100.58C107.388 99.6091 108.845 98.8537 110.922 98.8537C113.647 98.8537 114.942 100.23 114.942 103.143V111.263H113.431V103.305C113.431 100.958 112.46 100.149 110.329 100.149C108.845 100.149 107.496 100.688 106.552 101.686C106.687 102.118 106.741 102.9 106.741 103.413V111.263H105.284V103.386C105.284 100.958 104.609 100.149 102.559 100.149C101.102 100.149 99.6186 100.904 98.5665 101.902V111.263ZM125.011 111.533C120.614 111.533 118.753 109.429 118.753 105.112C118.753 101.255 120.344 98.8537 124.337 98.8537C127.763 98.8537 129.328 100.958 129.328 103.791V105.895H120.209C120.344 108.943 121.666 110.4 125.362 110.4C126.468 110.4 127.547 110.157 128.572 109.752V110.859C127.493 111.29 126.306 111.533 125.011 111.533ZM120.209 104.789H127.952V103.656C127.952 101.444 126.9 99.9867 124.364 99.9867C121.208 99.9867 120.209 101.929 120.209 104.789ZM134.898 111.263H133.333V99.1235H134.682L134.817 100.553C136.058 99.5551 137.515 98.8537 139.727 98.8537C142.64 98.8537 143.881 100.203 143.881 103.197V111.263H142.371V103.332C142.371 101.012 141.588 100.149 138.972 100.149C137.326 100.149 135.896 100.877 134.898 101.902V111.263ZM152.453 111.533C150.349 111.533 149.135 110.265 149.135 108.053V100.418H147.273V99.1235H149.135V95.8862L150.645 95.4816V99.1235H154.072L154.018 100.418H150.645V107.972C150.645 109.456 151.347 110.265 152.992 110.265C153.397 110.265 153.883 110.157 154.422 109.968V111.209C153.856 111.371 153.208 111.533 152.453 111.533ZM172.003 111.263H164.315V94.7532H171.545C174.755 94.7532 176.104 96.2909 176.104 99.0695C176.104 100.904 175.295 102.118 173.973 102.711C175.726 103.089 176.751 104.276 176.751 106.569C176.751 109.806 175.16 111.263 172.003 111.263ZM165.799 95.9672V102.145H171.599C173.595 102.145 174.674 101.174 174.674 99.1774C174.674 97.1272 173.946 95.9672 171.194 95.9672H165.799ZM165.799 103.305V110.049H171.814C174.188 110.049 175.241 109.024 175.241 106.515C175.241 103.979 173.784 103.305 171.464 103.305H165.799ZM181.668 115.768C180.939 115.768 180.346 115.687 179.779 115.472V114.231C180.373 114.473 180.831 114.5 181.317 114.5C182.99 114.5 183.637 113.179 184.527 111.155L179.267 99.1235H180.885L185.283 109.564L189.869 99.1235H191.433L186.308 110.805C185.094 113.664 184.042 115.768 181.668 115.768ZM4.3248 141.263H3.20192V129.415H4.46032L8.64209 138.011L12.7658 129.415H14.0242V141.263H12.9594V131.177L9.04865 139.192H8.21617L4.3248 131.177V141.263ZM21.0245 141.457C18.1399 141.457 16.8815 139.889 16.8815 136.907C16.8815 133.926 18.1399 132.358 21.0245 132.358C23.9092 132.358 25.1482 133.926 25.1482 136.907C25.1482 139.889 23.9479 141.457 21.0245 141.457ZM21.0245 140.528C23.2509 140.528 24.0834 139.327 24.0834 136.907C24.0834 134.468 23.2509 133.287 21.0245 133.287C18.8368 133.287 18.0043 134.468 18.0043 136.907C18.0043 139.327 18.7981 140.528 21.0245 140.528ZM29.1299 141.263H28.007V128.873H29.1299V133.558C29.9623 132.842 30.9884 132.358 32.5179 132.358C34.6475 132.358 35.5768 133.326 35.5768 135.513V141.263H34.4926V135.571C34.4926 133.906 33.9312 133.287 32.0532 133.287C30.8723 133.287 29.8462 133.81 29.1299 134.545V141.263ZM41.0573 141.457C39.4311 141.457 38.0565 140.76 38.0565 138.959C38.0565 136.985 39.3924 136.384 41.2509 136.384H44.4453V135.436C44.4453 133.81 43.9033 133.171 41.7349 133.171C40.7669 133.171 39.857 133.326 39.0439 133.635V132.842C39.8183 132.512 40.9218 132.358 42.006 132.358C44.3485 132.358 45.4908 133.248 45.4908 135.513V141.263H44.5809L44.4841 140.16C43.7096 141.031 42.6448 141.457 41.0573 141.457ZM41.3864 140.663C42.7416 140.663 43.6709 140.256 44.4453 139.366V137.159H41.4252C40.1087 137.159 39.102 137.449 39.102 138.94C39.102 140.16 39.9732 140.663 41.3864 140.663ZM49.6986 141.263H48.6338V132.551H49.6018L49.6986 133.577C50.6472 132.803 51.712 132.358 52.8736 132.358C54.2095 132.358 54.8677 132.822 55.2162 133.597C56.0293 132.9 57.0747 132.358 58.5655 132.358C60.5208 132.358 61.4501 133.345 61.4501 135.436V141.263H60.3659V135.552C60.3659 133.868 59.669 133.287 58.1395 133.287C57.0747 133.287 56.1067 133.674 55.4291 134.39C55.5259 134.7 55.5647 135.262 55.5647 135.629V141.263H54.5192V135.61C54.5192 133.868 54.0352 133.287 52.5638 133.287C51.5184 133.287 50.4536 133.829 49.6986 134.545V141.263ZM65.6555 141.263H64.5907V132.551H65.5587L65.6555 133.577C66.6041 132.803 67.6689 132.358 68.8305 132.358C70.1664 132.358 70.8246 132.822 71.1731 133.597C71.9862 132.9 73.0317 132.358 74.5224 132.358C76.4777 132.358 77.407 133.345 77.407 135.436V141.263H76.3229V135.552C76.3229 133.868 75.6259 133.287 74.0965 133.287C73.0317 133.287 72.0637 133.674 71.3861 134.39C71.4829 134.7 71.5216 135.262 71.5216 135.629V141.263H70.4761V135.61C70.4761 133.868 69.9921 133.287 68.5208 133.287C67.4753 133.287 66.4105 133.829 65.6555 134.545V141.263ZM82.897 141.457C81.2707 141.457 79.8962 140.76 79.8962 138.959C79.8962 136.985 81.232 136.384 83.0906 136.384H86.285V135.436C86.285 133.81 85.7429 133.171 83.5746 133.171C82.6066 133.171 81.6966 133.326 80.8835 133.635V132.842C81.6579 132.512 82.7614 132.358 83.8456 132.358C86.1882 132.358 87.3304 133.248 87.3304 135.513V141.263H86.4205L86.3237 140.16C85.5493 141.031 84.4845 141.457 82.897 141.457ZM83.2261 140.663C84.5813 140.663 85.5106 140.256 86.285 139.366V137.159H83.2648C81.9483 137.159 80.9416 137.449 80.9416 138.94C80.9416 140.16 81.8128 140.663 83.2261 140.663ZM93.9582 141.457C91.7899 141.457 90.1056 140.218 90.1056 137.043C90.1056 134.294 91.364 132.358 94.1131 132.358C95.3134 132.358 96.0878 132.59 96.9784 133.229V128.873H98.0432V141.263H97.1139L97.0365 140.295C96.2233 141.07 95.2941 141.457 93.9582 141.457ZM94.2486 140.528C95.3328 140.528 96.2427 140.16 96.9784 139.385V134.216C96.3008 133.616 95.5845 133.287 94.4422 133.287C92.3707 133.287 91.2284 134.487 91.2284 137.043C91.2284 139.405 92.2739 140.528 94.2486 140.528ZM109.344 141.457C107.931 141.457 106.828 141.263 105.956 140.915V139.985C106.924 140.315 108.047 140.547 109.267 140.547C111.455 140.547 112.636 139.831 112.636 138.224C112.636 136.752 111.609 136.152 109.189 135.61C106.556 134.991 105.647 134.139 105.647 132.435C105.647 130.499 106.963 129.241 109.886 129.241C111.125 129.241 112.442 129.473 113.003 129.686V130.615C112.171 130.305 111.164 130.151 110.099 130.151C107.912 130.151 106.769 130.847 106.769 132.435C106.769 133.732 107.505 134.255 110.003 134.836C112.848 135.475 113.72 136.462 113.72 138.224C113.72 140.373 112.19 141.457 109.344 141.457ZM118.913 141.457C117.287 141.457 115.913 140.76 115.913 138.959C115.913 136.985 117.249 136.384 119.107 136.384H122.301V135.436C122.301 133.81 121.759 133.171 119.591 133.171C118.623 133.171 117.713 133.326 116.9 133.635V132.842C117.674 132.512 118.778 132.358 119.862 132.358C122.205 132.358 123.347 133.248 123.347 135.513V141.263H122.437L122.34 140.16C121.566 141.031 120.501 141.457 118.913 141.457ZM119.243 140.663C120.598 140.663 121.527 140.256 122.301 139.366V137.159H119.281C117.965 137.159 116.958 137.449 116.958 138.94C116.958 140.16 117.829 140.663 119.243 140.663ZM129.975 141.457C127.806 141.457 126.122 140.218 126.122 137.043C126.122 134.294 127.38 132.358 130.13 132.358C131.33 132.358 132.104 132.59 132.995 133.229V128.873H134.06V141.263H133.13L133.053 140.295C132.24 141.07 131.311 141.457 129.975 141.457ZM130.265 140.528C131.349 140.528 132.259 140.16 132.995 139.385V134.216C132.317 133.616 131.601 133.287 130.459 133.287C128.387 133.287 127.245 134.487 127.245 137.043C127.245 139.405 128.29 140.528 130.265 140.528ZM141.409 141.457C138.253 141.457 136.918 139.947 136.918 136.849C136.918 134.081 138.06 132.358 140.925 132.358C143.384 132.358 144.507 133.868 144.507 135.9V137.411H137.963C138.06 139.598 139.008 140.644 141.661 140.644C142.455 140.644 143.229 140.469 143.965 140.179V140.973C143.19 141.283 142.338 141.457 141.409 141.457ZM137.963 136.617H143.519V135.804C143.519 134.216 142.764 133.171 140.944 133.171C138.679 133.171 137.963 134.565 137.963 136.617ZM150.711 144.496C149.453 144.496 148.214 144.38 147.362 144.051V143.238C148.349 143.567 149.55 143.703 150.673 143.703C152.492 143.703 153.615 143.528 153.615 142.386C153.615 141.496 153.209 141.186 151.757 141.186H149.434C147.749 141.186 147.014 140.74 147.014 139.734C147.014 138.998 147.594 138.379 148.64 138.146C147.498 137.72 147.11 136.694 147.11 135.494C147.11 133.345 148.291 132.358 150.769 132.358C151.273 132.358 151.873 132.474 152.202 132.551H155.222L155.183 133.364H153.518C154.177 133.926 154.428 134.7 154.428 135.513C154.428 137.527 153.402 138.553 150.982 138.553C150.634 138.553 150.189 138.514 149.801 138.437C148.853 138.533 148.156 138.901 148.156 139.579C148.156 140.16 148.543 140.411 149.743 140.411H152.066C153.731 140.411 154.603 140.992 154.603 142.328C154.603 144.032 153.189 144.496 150.711 144.496ZM150.769 137.778C152.531 137.778 153.441 137.314 153.441 135.475C153.441 133.829 152.686 133.132 150.769 133.132C148.872 133.132 148.098 133.79 148.098 135.475C148.098 137.043 148.795 137.778 150.769 137.778ZM158.959 141.263H157.837V128.873H158.959V133.558C159.792 132.842 160.818 132.358 162.347 132.358C164.477 132.358 165.406 133.326 165.406 135.513V141.263H164.322V135.571C164.322 133.906 163.761 133.287 161.883 133.287C160.702 133.287 159.676 133.81 158.959 134.545V141.263ZM170.137 130.344H168.918V129.163H170.137V130.344ZM170.137 141.263H169.053V133.48H167.679L167.737 132.551H170.137V141.263ZM175.992 141.457C174.365 141.457 172.991 140.76 172.991 138.959C172.991 136.985 174.327 136.384 176.185 136.384H179.38V135.436C179.38 133.81 178.838 133.171 176.669 133.171C175.701 133.171 174.791 133.326 173.978 133.635V132.842C174.753 132.512 175.856 132.358 176.94 132.358C179.283 132.358 180.425 133.248 180.425 135.513V141.263H179.515L179.418 140.16C178.644 141.031 177.579 141.457 175.992 141.457ZM176.321 140.663C177.676 140.663 178.605 140.256 179.38 139.366V137.159H176.359C175.043 137.159 174.036 137.449 174.036 138.94C174.036 140.16 174.907 140.663 176.321 140.663ZM184.691 141.263H183.568V132.551H184.536L184.633 133.577C185.523 132.861 186.569 132.358 188.156 132.358C190.247 132.358 191.138 133.326 191.138 135.475V141.263H190.054V135.571C190.054 133.906 189.492 133.287 187.614 133.287C186.433 133.287 185.407 133.81 184.691 134.545V141.263Z" fill="white"/>
<g clip-path="url(#clip0_361_321)">
<path d="M18.5279 42.413C12.1692 42.413 8.11556 39.0747 8.11556 32.7956V17.6937H13.5204V32.2392C13.5204 35.6172 15.3088 37.3261 18.5279 37.3261C21.7469 37.3261 23.4956 35.6172 23.4956 32.2392V17.6937H28.9004V32.7956C28.9004 39.0747 24.8071 42.413 18.5279 42.413ZM39.101 42.0156H33.6564V17.6937H39.101V42.0156ZM64.2354 42.413C56.0884 42.413 52.0745 37.9222 52.0745 30.1726C52.0745 22.0653 55.8102 17.3361 64.1957 17.3361C66.9379 17.3361 69.0839 17.7335 71.071 18.5283V23.7345C69.0839 22.8601 66.8584 22.3435 64.5931 22.3435C59.7049 22.3435 57.5986 25.0857 57.5986 30.1726C57.5986 35.0211 60.0626 37.3659 64.6726 37.3659C66.8584 37.3659 69.1237 36.8492 71.1107 36.0146V41.2208C69.1237 41.9361 66.9776 42.413 64.2354 42.413ZM85.6779 42.413C78.286 42.413 74.3515 38.4389 74.3515 29.9739C74.3515 20.9525 78.286 17.3361 85.6779 17.3361C93.0699 17.3361 96.9645 20.9525 96.9645 29.9739C96.9645 38.4389 93.0699 42.413 85.6779 42.413ZM85.6779 37.3659C89.6521 37.3659 91.4802 34.9814 91.4802 29.9739C91.4802 24.4101 89.6521 22.3435 85.6779 22.3435C81.7038 22.3435 79.8756 24.4101 79.8756 29.9739C79.8756 34.9814 81.7038 37.3659 85.6779 37.3659ZM111.44 42.413C105.081 42.413 101.027 39.0747 101.027 32.7956V17.6937H106.432V32.2392C106.432 35.6172 108.22 37.3261 111.44 37.3261C114.659 37.3261 116.407 35.6172 116.407 32.2392V17.6937H121.812V32.7956C121.812 39.0747 117.719 42.413 111.44 42.413ZM132.013 42.0156H126.568V17.6937H137.815C143.22 17.6937 145.604 21.1115 145.604 25.96C145.604 29.497 143.856 31.9212 141.074 33.1135C141.869 33.5109 142.187 34.107 142.504 34.9416L145.445 42.0156H139.762L137.219 35.7364C136.742 34.5839 136.265 34.2263 134.715 34.2263H132.013V42.0156ZM132.013 22.423V29.497H136.424C138.769 29.497 140.16 28.424 140.16 25.96C140.16 23.5358 139.007 22.423 136.742 22.423H132.013ZM156.621 42.413C153.641 42.413 150.978 41.8964 149.11 40.9823V36.4518C151.097 37.3261 153.72 38.0812 156.065 38.0812C158.926 38.0812 160.476 37.2069 160.476 35.2595C160.476 33.3519 158.648 32.6366 155.071 31.5636C150.302 30.0534 148.673 28.3048 148.673 24.4498C148.673 19.8795 151.654 17.3361 157.893 17.3361C160.198 17.3361 163.219 17.8527 164.729 18.3693V22.9396C162.583 21.9858 160.635 21.6679 158.807 21.6679C155.827 21.6679 154.197 22.4627 154.197 24.3703C154.197 25.96 155.429 26.5959 159.046 27.5497C164.689 29.0201 166 31.3649 166 35.2198C166 39.7504 162.821 42.413 156.621 42.413ZM187 42.0156H170.268V17.6937H187V22.0653H175.713V27.5894H185.648V32.12H175.713V37.644H187V42.0156Z" fill="#F1B01C"/>
<path d="M9.43989 54.6851H7.57461V46.3526H13.2113V47.8502H9.43989V49.7427H12.7484V51.2949H9.43989V54.6851ZM18.0441 54.8212C15.5116 54.8212 14.1637 53.4597 14.1637 50.5597C14.1637 47.469 15.5116 46.23 18.0441 46.23C20.5765 46.23 21.9108 47.469 21.9108 50.5597C21.9108 53.4597 20.5765 54.8212 18.0441 54.8212ZM18.0441 53.0921C19.4056 53.0921 20.0319 52.2752 20.0319 50.5597C20.0319 48.6535 19.4056 47.9455 18.0441 47.9455C16.6825 47.9455 16.0562 48.6535 16.0562 50.5597C16.0562 52.2752 16.6825 53.0921 18.0441 53.0921ZM27.2782 54.8212C24.4871 54.8212 23.112 53.2827 23.112 50.6277C23.112 47.8502 24.3918 46.23 27.2646 46.23C28.2041 46.23 28.9393 46.3662 29.6201 46.6385V48.4221C28.9393 48.1225 28.1768 47.9455 27.4008 47.9455C25.7261 47.9455 25.0045 48.885 25.0045 50.6277C25.0045 52.2888 25.8486 53.0921 27.428 53.0921C28.1768 53.0921 28.9529 52.9151 29.6337 52.6292V54.4128C28.9529 54.6578 28.2177 54.8212 27.2782 54.8212ZM34.6081 54.8212C32.4297 54.8212 31.0409 53.6775 31.0409 51.5263V46.3526H32.8926V51.3357C32.8926 52.493 33.5053 53.0785 34.6081 53.0785C35.7109 53.0785 36.31 52.493 36.31 51.3357V46.3526H38.1617V51.5263C38.1617 53.6775 36.7593 54.8212 34.6081 54.8212ZM42.269 54.8212C41.2479 54.8212 40.3356 54.6442 39.6957 54.3311V52.7789C40.3765 53.0785 41.2751 53.3372 42.0784 53.3372C43.0587 53.3372 43.5897 53.0376 43.5897 52.3705C43.5897 51.7169 42.9634 51.4719 41.738 51.1043C40.1042 50.5869 39.546 49.9878 39.546 48.6671C39.546 47.1014 40.5671 46.23 42.7047 46.23C43.4944 46.23 44.5291 46.407 45.0465 46.584V48.1498C44.3113 47.823 43.6441 47.7141 43.0178 47.7141C41.9967 47.7141 41.4385 47.9864 41.4385 48.6399C41.4385 49.1845 41.8605 49.4024 43.0995 49.7291C45.0329 50.2329 45.4822 51.0362 45.4822 52.3569C45.4822 53.909 44.393 54.8212 42.269 54.8212ZM48.8096 54.6851H46.9443V46.3526H48.8096V54.6851ZM52.3597 54.6851H50.4944V46.3526H52.0874L55.5456 51.4174V46.3526H57.4109V54.6851H55.8043L52.3597 49.6338V54.6851ZM62.9637 54.8212C60.227 54.8212 58.8519 53.2827 58.8519 50.6277C58.8519 47.8502 60.2134 46.23 63.0726 46.23C64.012 46.23 64.7745 46.3253 65.4553 46.5704V48.3268C64.7745 48.0545 64.012 47.9455 63.2087 47.9455C61.5613 47.9455 60.7444 48.8441 60.7444 50.6277C60.7444 52.2752 61.466 53.0921 62.9637 53.0921C63.4674 53.0921 63.9848 52.9968 64.3524 52.8606V51.2268H62.6233V49.9606H65.9046V54.086C65.3463 54.4536 64.4205 54.8212 62.9637 54.8212ZM74.0738 54.8212C71.5414 54.8212 70.1934 53.4597 70.1934 50.5597C70.1934 47.469 71.5414 46.23 74.0738 46.23C76.6062 46.23 77.9405 47.469 77.9405 50.5597C77.9405 53.4597 76.6062 54.8212 74.0738 54.8212ZM74.0738 53.0921C75.4353 53.0921 76.0616 52.2752 76.0616 50.5597C76.0616 48.6535 75.4353 47.9455 74.0738 47.9455C72.7123 47.9455 72.086 48.6535 72.086 50.5597C72.086 52.2752 72.7123 53.0921 74.0738 53.0921ZM81.2521 54.6851H79.3868V46.3526H80.9798L84.438 51.4174V46.3526H86.3033V54.6851H84.6967L81.2521 49.6338V54.6851ZM92.8596 54.6851H90.9943V46.3526H96.631V47.8502H92.8596V49.7427H96.168V51.2949H92.8596V54.6851ZM99.6937 54.6851H97.8285V46.3526H99.6937V54.6851ZM105.245 54.8212C102.509 54.8212 101.133 53.2827 101.133 50.6277C101.133 47.8502 102.495 46.23 105.354 46.23C106.294 46.23 107.056 46.3253 107.737 46.5704V48.3268C107.056 48.0545 106.294 47.9455 105.49 47.9455C103.843 47.9455 103.026 48.8441 103.026 50.6277C103.026 52.2752 103.748 53.0921 105.245 53.0921C105.749 53.0921 106.266 52.9968 106.634 52.8606V51.2268H104.905V49.9606H108.186V54.086C107.628 54.4536 106.702 54.8212 105.245 54.8212ZM111.58 54.6851H109.715V46.3526H111.553L113.745 51.0226L115.91 46.3526H117.748V54.6851H115.896V49.7972L114.263 53.2418H113.214L111.58 49.7972V54.6851ZM121.15 54.6851H119.203L122.198 46.3526H124.2L127.195 54.6851H125.275L124.554 52.7245H121.844L121.15 54.6851ZM123.206 48.2859L122.076 51.2949H124.322L123.206 48.2859ZM135.385 54.6851H133.533V47.8502H131.205V46.3526H137.726V47.8502H135.385V54.6851ZM140.819 54.6851H138.953V46.3526H142.806C144.658 46.3526 145.475 47.5235 145.475 49.1845C145.475 50.3963 144.876 51.2268 143.923 51.6353C144.195 51.7714 144.304 51.9756 144.413 52.2616L145.42 54.6851H143.474L142.602 52.5339C142.439 52.139 142.275 52.0165 141.744 52.0165H140.819V54.6851ZM140.819 47.9728V50.3963H142.33C143.133 50.3963 143.61 50.0287 143.61 49.1845C143.61 48.354 143.215 47.9728 142.439 47.9728H140.819ZM148.021 54.6851H146.074L149.07 46.3526H151.071L154.066 54.6851H152.147L151.425 52.7245H148.716L148.021 54.6851ZM150.077 48.2859L148.947 51.2949H151.194L150.077 48.2859ZM157.372 54.6851H155.507V46.3526H157.372V54.6851ZM160.922 54.6851H159.057V46.3526H160.65L164.108 51.4174V46.3526H165.973V54.6851H164.367L160.922 49.6338V54.6851ZM169.525 54.6851H167.66V46.3526H169.525V54.6851ZM173.075 54.6851H171.21V46.3526H172.803L176.261 51.4174V46.3526H178.126V54.6851H176.52L173.075 49.6338V54.6851ZM183.679 54.8212C180.942 54.8212 179.567 53.2827 179.567 50.6277C179.567 47.8502 180.929 46.23 183.788 46.23C184.727 46.23 185.49 46.3253 186.17 46.5704V48.3268C185.49 48.0545 184.727 47.9455 183.924 47.9455C182.276 47.9455 181.46 48.8441 181.46 50.6277C181.46 52.2752 182.181 53.0921 183.679 53.0921C184.183 53.0921 184.7 52.9968 185.068 52.8606V51.2268H183.338V49.9606H186.62V54.086C186.062 54.4536 185.136 54.8212 183.679 54.8212Z" fill="#F1B01C"/>
</g>
<line x1="6.56934" y1="61.0687" x2="187.495" y2="61.0687" stroke="#A8A8A8" stroke-width="0.303567"/>
<g clip-path="url(#clip1_361_321)">
<path d="M8.62707 75.4252C8.67407 75.4252 8.72107 75.4628 8.72107 76.1584C8.72107 76.8352 8.67407 76.8728 8.62707 76.8728H8.25107C7.13247 76.8728 6.56847 76.2054 6.56847 75.0586V70.8286H7.95967V74.9552C7.95967 75.2842 8.07247 75.4252 8.35447 75.4252H8.62707ZM8.90114 75.4252C9.16434 75.4252 9.28654 75.3218 9.28654 75.0586V74.8518C9.28654 73.6298 10.0385 72.859 11.2417 72.859C12.4449 72.859 13.1217 73.5828 13.1217 74.8706V75.0022C13.1217 75.3218 13.2627 75.4252 13.5071 75.4252H13.7797C13.8173 75.4252 13.8737 75.4628 13.8737 76.1584C13.8737 76.8352 13.8173 76.8728 13.7797 76.8728H13.5259C13.0089 76.8728 12.6517 76.7506 12.4449 76.4686C12.1441 76.7506 11.6835 76.8728 11.1853 76.8728C10.6025 76.8728 10.1983 76.7036 10.0103 76.4592C9.77534 76.7506 9.42754 76.8728 8.90114 76.8728H8.62854C8.59094 76.8728 8.53454 76.8352 8.53454 76.1584C8.53454 75.4722 8.59094 75.4252 8.62854 75.4252H8.90114ZM11.7775 74.8706C11.7775 74.4476 11.5895 74.2314 11.1947 74.2314C10.8093 74.2314 10.6213 74.4476 10.6213 74.8706C10.6213 75.2466 10.8093 75.4628 11.1947 75.4628C11.5989 75.4628 11.7775 75.2748 11.7775 74.8706ZM14.4175 70.2552L17.6981 68.9768L17.9143 69.7946L14.4175 71.1576V70.2552ZM16.1565 75.4252C16.4573 75.4252 16.6265 75.3124 16.6265 75.1432C16.6265 74.974 16.5419 74.8424 16.3727 74.6732L14.4175 72.765V71.6746L18.0647 70.2928L18.4313 71.6464L16.1753 72.5018L17.4161 73.7426C18.9577 75.2842 19.2303 75.4252 19.8413 75.4252C19.8789 75.4252 19.9353 75.4628 19.9353 76.1584C19.9353 76.8352 19.8789 76.8728 19.8413 76.8728C18.8449 76.8728 18.4971 76.7506 17.8767 76.1114C17.6511 76.5814 17.0495 76.8728 16.2787 76.8728H13.7783C13.7407 76.8728 13.6843 76.8352 13.6843 76.1584C13.6843 75.4722 13.7407 75.4252 13.7783 75.4252H16.1565ZM23.3619 75.4252C23.3995 75.4252 23.4559 75.4628 23.4559 76.149C23.4559 76.8352 23.3995 76.8728 23.3619 76.8728H22.9953C22.5065 76.8728 22.1399 76.7506 21.9331 76.4592C21.6981 76.7506 21.3503 76.8728 20.8333 76.8728H19.8369C19.7993 76.8728 19.7429 76.8352 19.7429 76.1584C19.7429 75.4722 19.7993 75.4252 19.8369 75.4252H20.8333C21.0965 75.4252 21.2563 75.2936 21.2563 75.0492V73.5452H22.6381V75.021C22.6381 75.2842 22.7697 75.4252 23.0611 75.4252H23.3619ZM21.8109 77.7282V78.8844H19.1037V77.7282H21.8109ZM26.6425 71.778H25.1949V70.6124H26.6425V71.778ZM24.3019 75.4252H24.4993C24.1703 75.1996 24.0105 74.8706 24.0105 74.4382C24.0105 73.4136 24.7531 72.5206 25.9469 72.5206C27.1877 72.5206 27.8739 73.3008 27.8739 74.6356V74.974C27.8739 76.2242 26.9997 76.8728 25.4205 76.8728H23.3619C23.3243 76.8728 23.2679 76.8352 23.2679 76.1584C23.2679 75.4722 23.3243 75.4252 23.3619 75.4252H24.3019ZM26.3793 75.3688C26.5015 75.2372 26.5485 75.0304 26.5485 74.7672V74.6732C26.5485 74.1656 26.3323 73.8836 25.9281 73.8836C25.6085 73.8836 25.3641 74.1374 25.3641 74.457C25.3641 74.8518 25.6367 75.115 26.3793 75.3688ZM38.7338 70.0014V71.1388H37.5118V70.0014H38.7338ZM36.7692 72.6992V71.5336H39.4764V72.6992H36.7692ZM39.749 73.5452H41.112V75.0304C41.112 76.1772 40.4164 76.8728 39.2696 76.8728C38.6774 76.8728 38.3014 76.7224 38.0946 76.431C37.8784 76.7224 37.54 76.8728 37.023 76.8728C36.7316 76.8728 36.553 76.8258 36.4402 76.76C36.3368 78.1606 35.3216 79.0912 33.8082 79.0912H33.4134C31.7684 79.0912 30.8378 78.0854 30.8378 76.4122V74.4852H32.229V76.3746C32.229 77.2206 32.5956 77.6436 33.4322 77.6436H33.8082C34.626 77.6436 35.096 77.2206 35.096 76.4874V73.5452H36.459V74.9928C36.459 75.256 36.5906 75.4252 36.9572 75.4252C37.2862 75.4252 37.446 75.256 37.446 74.9928V73.5452H38.8184V74.9928C38.8184 75.256 38.9594 75.4252 39.279 75.4252C39.5986 75.4252 39.749 75.256 39.749 74.9928V73.5452ZM43.9106 72.6992H42.463V71.5336H43.9106V72.6992ZM43.9106 76.4686C43.9106 78.0196 42.9236 79.0912 41.3538 79.0912H40.4702L40.3574 77.6436H41.2974C42.0776 77.6436 42.5194 77.2394 42.5194 76.4874V73.5452H43.9106V76.4686ZM49.5235 75.4252C49.5611 75.4252 49.6175 75.4722 49.6175 76.1584C49.6175 76.8352 49.5611 76.8728 49.5235 76.8728H48.8373C48.6963 78.2734 47.7845 79.0912 46.4027 79.0912H45.0773L44.9645 77.6624H46.5625C47.1547 77.6624 47.5025 77.3522 47.5025 76.8728H46.9761C45.5755 76.8728 45.0397 76.3088 45.0397 75.0398C45.0397 73.8178 45.8105 72.953 46.9573 72.953C48.1417 72.953 48.8655 73.752 48.8655 75.1056V75.4252H49.5235ZM46.3933 74.974C46.3933 75.3312 46.5437 75.4816 47.0043 75.4816H47.5213V75.0492C47.5213 74.5604 47.3051 74.3066 46.9291 74.3066C46.5719 74.3066 46.3933 74.5886 46.3933 74.974ZM49.7966 75.4252C50.0598 75.4252 50.182 75.3218 50.182 75.0586V74.8518C50.182 73.6298 50.934 72.859 52.1372 72.859C53.3404 72.859 54.0172 73.5828 54.0172 74.8706C54.0172 76.1302 53.2934 76.8728 52.0808 76.8728C51.498 76.8728 51.0938 76.7036 50.9058 76.4592C50.6708 76.7506 50.323 76.8728 49.7966 76.8728H49.524C49.4864 76.8728 49.43 76.8352 49.43 76.1584C49.43 75.4722 49.4864 75.4252 49.524 75.4252H49.7966ZM52.673 74.8706C52.673 74.4476 52.485 74.2314 52.0902 74.2314C51.7048 74.2314 51.5168 74.4476 51.5168 74.8706C51.5168 75.2466 51.7048 75.4628 52.0902 75.4628C52.4944 75.4628 52.673 75.2748 52.673 74.8706ZM55.5126 70.6124C55.2682 70.6124 55.1272 70.7064 55.0614 70.885L54.8264 71.4772L53.9428 71.0824L54.2624 70.227C54.5068 69.5878 54.8264 69.428 55.5408 69.428H57.8344V70.6124H55.5126ZM55.5972 71.5712H56.9884V76.8728H55.5972V71.5712ZM61.9374 72.9248V71.7686H64.6352V72.9248H61.9374ZM67.2578 75.4252C67.2954 75.4252 67.3518 75.4628 67.3518 76.1584C67.3518 76.8352 67.2954 76.8728 67.2578 76.8728H66.8912C66.4118 76.8728 66.0358 76.7506 65.829 76.4592C65.594 76.7506 65.2556 76.8728 64.7386 76.8728H61.8058C60.659 76.8728 60.0292 76.243 60.0292 75.0962V73.5452H61.4204V74.9082C61.4204 75.2466 61.552 75.4252 61.9092 75.4252H64.7386C64.9924 75.4252 65.1522 75.2936 65.1522 75.0586V73.5452H66.5434V75.021C66.5434 75.2842 66.675 75.4252 66.957 75.4252H67.2578ZM69.9288 73.5452H71.2918V75.115C71.2918 76.2054 70.5962 76.8728 69.5058 76.8728H67.2592C67.2216 76.8728 67.1652 76.8352 67.1652 76.1584C67.1652 75.4722 67.2216 75.4252 67.2592 75.4252H69.5152C69.7502 75.4252 69.9288 75.2842 69.9288 75.0492V73.5452ZM70.0604 77.7282V78.8844H67.3532V77.7282H70.0604ZM74.0934 76.4686C74.0934 78.0196 73.1064 79.0912 71.5366 79.0912H71.1794L71.0666 77.6436H71.4802C72.2604 77.6436 72.7022 77.2394 72.7022 76.4874V73.5452H74.0934V76.4686ZM79.7063 75.4252C79.7439 75.4252 79.8003 75.4722 79.8003 76.1584C79.8003 76.8352 79.7439 76.8728 79.7063 76.8728H79.0201C78.8791 78.2734 77.9673 79.0912 76.5855 79.0912H75.2601L75.1473 77.6624H76.7453C77.3375 77.6624 77.6853 77.3522 77.6853 76.8728H77.1589C75.7583 76.8728 75.2225 76.3088 75.2225 75.0398C75.2225 73.8178 75.9933 72.953 77.1401 72.953C78.3245 72.953 79.0483 73.752 79.0483 75.1056V75.4252H79.7063ZM76.5761 74.974C76.5761 75.3312 76.7265 75.4816 77.1871 75.4816H77.7041V75.0492C77.7041 74.5604 77.4879 74.3066 77.1119 74.3066C76.7547 74.3066 76.5761 74.5886 76.5761 74.974ZM80.3837 74.1374L80.5247 72.718H82.8277C83.8523 72.718 84.3787 73.1692 84.8017 74.8706L84.2283 75.2466C84.3035 75.3688 84.6513 75.4252 84.8769 75.4252H85.4409C85.4785 75.4252 85.5349 75.491 85.5349 76.1584C85.5349 76.8634 85.4785 76.8728 85.4409 76.8728H84.7641C84.0685 76.8728 83.6361 76.6378 83.2601 76.008L82.9123 76.2242C82.1133 76.7224 81.4459 76.8728 80.3555 76.8728H79.7069C79.6693 76.8728 79.6129 76.8352 79.6129 76.1584C79.6129 75.4722 79.6693 75.4252 79.7069 75.4252H80.4213C81.3237 75.4252 81.8783 75.3312 82.5833 74.974L83.1849 74.6262C83.0815 74.2408 82.9029 74.1374 82.5269 74.1374H80.3837ZM85.7168 75.4252C85.98 75.4252 86.1022 75.3218 86.1022 75.0586V74.8518C86.1022 73.6298 86.8542 72.859 88.0574 72.859C89.2606 72.859 89.9374 73.5828 89.9374 74.8706C89.9374 76.1302 89.2136 76.8728 88.001 76.8728C87.4182 76.8728 87.014 76.7036 86.826 76.4592C86.591 76.7506 86.2432 76.8728 85.7168 76.8728H85.4442C85.4066 76.8728 85.3502 76.8352 85.3502 76.1584C85.3502 75.4722 85.4066 75.4252 85.4442 75.4252H85.7168ZM88.5932 74.8706C88.5932 74.4476 88.4052 74.2314 88.0104 74.2314C87.625 74.2314 87.437 74.4476 87.437 74.8706C87.437 75.2466 87.625 75.4628 88.0104 75.4628C88.4146 75.4628 88.5932 75.2748 88.5932 74.8706ZM95.0355 75.4252C95.0825 75.4252 95.1295 75.4628 95.1295 76.1584C95.1295 76.8352 95.0825 76.8728 95.0355 76.8728H94.6595C93.5409 76.8728 92.9769 76.2054 92.9769 75.0586V70.8286H94.3681V74.9552C94.3681 75.2842 94.4809 75.4252 94.7629 75.4252H95.0355ZM97.7065 75.115C97.7065 76.2054 97.0109 76.8728 95.9205 76.8728H95.0369C94.9993 76.8728 94.9429 76.8352 94.9429 76.1584C94.9429 75.4722 94.9993 75.4252 95.0369 75.4252H95.9205C96.1649 75.4252 96.3435 75.2842 96.3435 75.0492V73.5452H97.7065V75.115ZM96.5127 78.8844H95.0651V77.7282H96.5127V78.8844ZM105.255 76.8822C105.255 76.6566 105.104 76.5532 104.86 76.5532H103.065V74.6544C103.065 73.5076 103.779 72.7368 104.926 72.7368H106.289L106.373 74.1374H104.945C104.653 74.1374 104.446 74.3348 104.446 74.645V75.1244H105.086C106.214 75.1244 106.637 75.7354 106.637 76.7224C106.637 78.0196 105.527 79.0912 103.967 79.0912H103.243C101.598 79.0912 100.668 78.0854 100.668 76.4122V74.4852H102.059V76.3746C102.059 77.2206 102.425 77.6436 103.262 77.6436H104.005C104.86 77.6436 105.255 77.3334 105.255 76.8822ZM107.272 77.6436C108.052 77.6436 108.494 77.2394 108.494 76.4874V73.5452H109.885V74.974C109.885 75.2936 110.026 75.4252 110.355 75.4252H110.59C110.628 75.4252 110.684 75.491 110.684 76.1584C110.684 76.8258 110.628 76.8728 110.59 76.8728H110.43C110.205 76.8728 109.998 76.8164 109.876 76.713C109.782 78.076 108.86 79.0912 107.328 79.0912H106.971L106.858 77.6436H107.272ZM113.257 75.115C113.257 76.2054 112.561 76.8728 111.471 76.8728H110.587C110.55 76.8728 110.493 76.8352 110.493 76.1584C110.493 75.4722 110.55 75.4252 110.587 75.4252H111.471C111.715 75.4252 111.894 75.2842 111.894 75.0492V73.5452H113.257V75.115ZM112.063 78.8844H110.616V77.7282H112.063V78.8844ZM116.173 76.4686C116.173 78.0196 115.186 79.0912 113.616 79.0912H113.259L113.146 77.6436H113.56C114.34 77.6436 114.782 77.2394 114.782 76.4874V73.5452H116.173V76.4686ZM119.398 75.4252C119.445 75.4252 119.492 75.4628 119.492 76.1584C119.492 76.8352 119.445 76.8728 119.398 76.8728H119.022C117.904 76.8728 117.34 76.2054 117.34 75.0586V70.8286H118.731V74.9552C118.731 75.2842 118.844 75.4252 119.126 75.4252H119.398ZM121.778 75.4252C122.079 75.4252 122.248 75.3124 122.248 75.1432C122.248 74.974 122.163 74.8424 121.994 74.6732L120.039 72.765V71.6746L123.686 70.2928L124.053 71.6464L121.797 72.5018L123.038 73.7426C123.573 74.269 123.743 74.7296 123.743 75.2748C123.743 76.2712 123.038 76.8728 121.9 76.8728H119.4C119.362 76.8728 119.306 76.8352 119.306 76.1584C119.306 75.4722 119.362 75.4252 119.4 75.4252H121.778ZM128.69 73.5922C129.169 73.0094 129.714 72.7838 130.241 72.7838C131.341 72.7838 132.093 73.6016 132.093 74.7954C132.093 75.0022 132.074 75.1808 132.008 75.3594C132.121 75.4158 132.29 75.4252 132.516 75.4252H132.751C132.788 75.4252 132.845 75.4628 132.845 76.1584C132.845 76.8352 132.788 76.8728 132.751 76.8728H132.516C131.98 76.8728 131.613 76.7788 131.294 76.4874C130.955 76.7318 130.504 76.8728 129.987 76.8728H126.782L126.669 75.4252H127.299V70.8286H128.69V73.5922ZM130.006 75.444C130.457 75.444 130.72 75.1996 130.72 74.7954C130.72 74.4288 130.476 74.1656 130.128 74.1656C129.705 74.1656 129.235 74.6074 128.624 75.444H130.006ZM135.417 75.115C135.417 76.2054 134.721 76.8728 133.631 76.8728H132.747C132.71 76.8728 132.653 76.8352 132.653 76.1584C132.653 75.4722 132.71 75.4252 132.747 75.4252H133.631C133.875 75.4252 134.054 75.2842 134.054 75.0492V73.5452H135.417V75.115ZM134.223 78.8844H132.775V77.7282H134.223V78.8844ZM136.58 76.8728V70.8286H137.972V76.8728H136.58ZM140.885 76.4686C140.885 78.0196 139.898 79.0912 138.328 79.0912H137.444L137.332 77.6436H138.272C139.052 77.6436 139.494 77.2394 139.494 76.4874V73.5452H140.885V76.4686ZM146.368 76.7694L146.481 75.4252H150.391C150.429 75.4252 150.485 75.4722 150.485 76.1584C150.485 76.8352 150.429 76.8728 150.391 76.8728H149.686C149.715 76.9104 149.733 76.9856 149.733 77.0702C149.696 78.264 148.662 79.0912 147.13 79.0912H146.425C144.78 79.0912 143.849 78.0854 143.849 76.4122V74.4852H145.24V76.3746C145.24 77.2206 145.607 77.6436 146.443 77.6436H147.205C148.06 77.6436 148.37 77.4368 148.37 77.0702C148.37 76.8634 148.267 76.7694 148.013 76.7694H146.368ZM151.105 75.4252C152.007 75.4252 152.562 75.3312 153.267 74.974L153.868 74.6262C153.765 74.2408 153.586 74.1374 153.21 74.1374H151.067L151.208 72.718H153.511C154.63 72.718 155.119 73.2726 155.532 75.0586L153.596 76.2242C152.797 76.7224 152.129 76.8728 151.039 76.8728H150.39C150.353 76.8728 150.296 76.8352 150.296 76.1584C150.296 75.4722 150.353 75.4252 150.39 75.4252H151.105ZM156.491 76.8728V70.8286H157.882V76.8728H156.491ZM160.796 74.974C160.796 75.2936 160.937 75.4252 161.266 75.4252H161.501C161.538 75.4252 161.595 75.491 161.595 76.1584C161.595 76.8258 161.538 76.8728 161.501 76.8728H161.341C161.115 76.8728 160.908 76.8164 160.786 76.713C160.692 78.076 159.771 79.0912 158.239 79.0912H157.355L157.242 77.6436H158.182C158.963 77.6436 159.404 77.2394 159.404 76.4874V73.5452H160.796V74.974ZM162.156 75.4252V70.8286H163.547V73.5922C164.026 73.0094 164.572 72.7838 165.098 72.7838C166.188 72.7838 166.94 73.6016 166.94 74.7954C166.94 76.055 166.132 76.8728 164.844 76.8728H161.498C161.46 76.8728 161.404 76.8352 161.404 76.1584C161.404 75.4722 161.46 75.4252 161.498 75.4252H162.156ZM164.863 75.444C165.314 75.444 165.577 75.1996 165.577 74.7954C165.577 74.4288 165.333 74.1656 164.985 74.1656C164.562 74.1656 164.092 74.6074 163.481 75.444H164.863ZM169.91 75.1714C169.91 74.5322 170.201 73.9118 170.935 73.1598L170.53 72.7462L171.517 71.731C173.454 73.4512 173.839 74.1844 173.839 75.0774C173.839 76.1772 173.021 76.9668 171.799 76.9668C170.634 76.9668 169.91 76.243 169.91 75.1714ZM172.495 75.0398C172.495 74.7108 172.345 74.4288 171.875 74.034C171.442 74.4288 171.264 74.739 171.264 75.068C171.264 75.3406 171.48 75.5568 171.846 75.5568C172.241 75.5568 172.495 75.3406 172.495 75.0398ZM176.64 76.4686C176.64 78.0196 175.653 79.0912 174.083 79.0912H173.199L173.086 77.6436H174.026C174.807 77.6436 175.248 77.2394 175.248 76.4874V73.5452H176.64V76.4686ZM181.595 76.4404C181.595 78.1042 180.655 79.0912 179.132 79.0912H177.806L177.694 77.6624H179.292C179.884 77.6624 180.232 77.3522 180.232 76.8728H179.705C178.305 76.8728 177.769 76.3088 177.769 75.0398C177.769 73.8178 178.54 72.953 179.686 72.953C180.871 72.953 181.595 73.752 181.595 75.1056V76.4404ZM179.122 74.974C179.122 75.3312 179.273 75.4816 179.733 75.4816H180.25V75.0492C180.25 74.5604 180.034 74.3066 179.658 74.3066C179.301 74.3066 179.122 74.5886 179.122 74.974ZM183.656 72.859L184.672 71.8532L186.307 73.8084C186.815 74.41 186.956 74.8424 186.956 75.3124C186.956 76.2148 186.307 76.8728 185.151 76.8728H182.594L182.481 75.4252H184.972C185.264 75.4252 185.442 75.3218 185.442 75.1432C185.442 74.9928 185.367 74.88 185.198 74.6732L183.656 72.859Z" fill="#F1B01C"/>
</g>
<rect x="2.33731" y="12.8313" width="189.389" height="71.7509" stroke="black" stroke-width="0.367978"/>
<rect x="190.007" y="10.8075" width="3.67978" height="3.67978" fill="white" stroke="black" stroke-width="0.367978"/>
<rect x="190.007" y="82.3859" width="3.67978" height="3.67978" fill="white" stroke="black" stroke-width="0.367978"/>
<rect x="0.312895" y="10.8075" width="3.67978" height="3.67978" fill="white" stroke="black" stroke-width="0.367978"/>
<rect x="0.312895" y="82.3859" width="3.67978" height="3.67978" fill="white" stroke="black" stroke-width="0.367978"/>
<path d="M7.55092 1.93047L7.02808 1.19401L6.83843 2.07706L5.44661 8.55755L5.26044 9.42437L6.03135 8.98649L11.9755 5.6101L12.8315 5.1239L11.8779 4.87967L9.14837 4.18063L7.55092 1.93047Z" fill="#F1B01C" stroke="black" stroke-width="0.794693" stroke-linecap="square"/>
<defs>
<clipPath id="clip0_361_321">
<rect width="180.861" height="38.2697" fill="white" transform="translate(6.60156 17.0631)"/>
</clipPath>
<clipPath id="clip1_361_321">
<rect width="180.758" height="13.2423" fill="white" transform="translate(6.65332 67.1082)"/>
</clipPath>
</defs>
</svg>
