<svg width="328" height="175" viewBox="0 0 328 175" fill="none" xmlns="http://www.w3.org/2000/svg">
<g clip-path="url(#clip0_360_465)">
<path d="M31.1494 71.916C20.3843 71.916 13.5215 66.2643 13.5215 55.6337V30.0665H22.6719V54.6918C22.6719 60.4108 25.6996 63.3039 31.1494 63.3039C36.5992 63.3039 39.5597 60.4108 39.5597 54.6918V30.0665H48.71V55.6337C48.71 66.2643 41.78 71.916 31.1494 71.916ZM65.9794 71.2432H56.7618V30.0665H65.9794V71.2432ZM108.532 71.916C94.7388 71.916 87.9433 64.3131 87.9433 51.1931C87.9433 37.4676 94.2678 29.461 108.464 29.461C113.107 29.461 116.74 30.1338 120.104 31.4795V40.2934C116.74 38.8132 112.972 37.9385 109.137 37.9385C100.861 37.9385 97.2955 42.581 97.2955 51.1931C97.2955 59.4015 101.467 63.3712 109.272 63.3712C112.972 63.3712 116.807 62.4965 120.171 61.0836V69.8975C116.807 71.1086 113.174 71.916 108.532 71.916ZM144.833 71.916C132.319 71.916 125.658 65.1878 125.658 50.8567C125.658 35.5837 132.319 29.461 144.833 29.461C157.348 29.461 163.942 35.5837 163.942 50.8567C163.942 65.1878 157.348 71.916 144.833 71.916ZM144.833 63.3712C151.562 63.3712 154.657 59.3342 154.657 50.8567C154.657 41.4372 151.562 37.9385 144.833 37.9385C138.105 37.9385 135.01 41.4372 135.01 50.8567C135.01 59.3342 138.105 63.3712 144.833 63.3712ZM188.447 71.916C177.682 71.916 170.82 66.2643 170.82 55.6337V30.0665H179.97V54.6918C179.97 60.4108 182.998 63.3039 188.447 63.3039C193.897 63.3039 196.858 60.4108 196.858 54.6918V30.0665H206.008V55.6337C206.008 66.2643 199.078 71.916 188.447 71.916ZM223.277 71.2432H214.06V30.0665H233.101C242.251 30.0665 246.288 35.8528 246.288 44.0612C246.288 50.0493 243.328 54.1535 238.618 56.172C239.963 56.8448 240.502 57.854 241.04 59.267L246.019 71.2432H236.397L232.091 60.6126C231.284 58.6614 230.477 58.0559 227.853 58.0559H223.277V71.2432ZM223.277 38.0731V50.0493H230.746C234.715 50.0493 237.07 48.2327 237.07 44.0612C237.07 39.957 235.119 38.0731 231.284 38.0731H223.277ZM264.94 71.916C259.894 71.916 255.386 71.0413 252.224 69.4938V61.8237C255.588 63.3039 260.028 64.5822 263.998 64.5822C268.842 64.5822 271.466 63.102 271.466 59.8052C271.466 56.5757 268.371 55.3646 262.316 53.548C254.242 50.9913 251.483 48.0309 251.483 41.5045C251.483 33.7671 256.53 29.461 267.093 29.461C270.995 29.461 276.109 30.3357 278.665 31.2103V38.9478C275.032 37.333 271.735 36.7948 268.64 36.7948C263.594 36.7948 260.836 38.1404 260.836 41.3699C260.836 44.0612 262.921 45.1377 269.044 46.7525C278.598 49.2419 280.818 53.2116 280.818 59.7379C280.818 67.4081 275.436 71.916 264.94 71.916ZM316.37 71.2432H288.044V30.0665H316.37V37.4676H297.261V46.8198H314.082V54.4899H297.261V63.8421H316.37V71.2432Z" fill="#F1B01C"/>
<path d="M15.7638 93.2463H12.6059V79.1395H22.1487V81.6751H15.7638V84.8791H21.365V87.5068H15.7638V93.2463ZM30.3305 93.4768C26.0431 93.4768 23.7612 91.1718 23.7612 86.2621C23.7612 81.0297 26.0431 78.9321 30.3305 78.9321C34.6179 78.9321 36.8768 81.0297 36.8768 86.2621C36.8768 91.1718 34.6179 93.4768 30.3305 93.4768ZM30.3305 90.5494C32.6355 90.5494 33.6959 89.1664 33.6959 86.2621C33.6959 83.035 32.6355 81.8364 30.3305 81.8364C28.0255 81.8364 26.9652 83.035 26.9652 86.2621C26.9652 89.1664 28.0255 90.5494 30.3305 90.5494ZM45.9639 93.4768C41.2385 93.4768 38.9105 90.8722 38.9105 86.3773C38.9105 81.6751 41.0772 78.9321 45.9408 78.9321C47.5313 78.9321 48.776 79.1626 49.9285 79.6236V82.6432C48.776 82.1361 47.4852 81.8364 46.1713 81.8364C43.3361 81.8364 42.1144 83.4269 42.1144 86.3773C42.1144 89.1895 43.5436 90.5494 46.2174 90.5494C47.4852 90.5494 48.799 90.2498 49.9516 89.7657V92.7853C48.799 93.2002 47.5543 93.4768 45.9639 93.4768ZM58.3732 93.4768C54.6852 93.4768 52.334 91.5406 52.334 87.8987V79.1395H55.4689V87.576C55.4689 89.5352 56.5061 90.5264 58.3732 90.5264C60.2403 90.5264 61.2545 89.5352 61.2545 87.576V79.1395H64.3894V87.8987C64.3894 91.5406 62.0152 93.4768 58.3732 93.4768ZM71.343 93.4768C69.6142 93.4768 68.0698 93.1772 66.9865 92.647V90.0193C68.139 90.5264 69.6603 90.9644 71.0203 90.9644C72.6799 90.9644 73.5789 90.4572 73.5789 89.3278C73.5789 88.2214 72.5186 87.8065 70.444 87.1841C67.678 86.3082 66.7329 85.294 66.7329 83.0581C66.7329 80.4073 68.4617 78.9321 72.0806 78.9321C73.4175 78.9321 75.1693 79.2317 76.0453 79.5314V82.1822C74.8005 81.629 73.6711 81.4446 72.6108 81.4446C70.882 81.4446 69.9369 81.9056 69.9369 83.012C69.9369 83.934 70.6515 84.3028 72.7491 84.856C76.0222 85.7089 76.7829 87.0688 76.7829 89.3047C76.7829 91.9325 74.9388 93.4768 71.343 93.4768ZM82.4162 93.2463H79.2583V79.1395H82.4162V93.2463ZM88.4263 93.2463H85.2685V79.1395H87.9653L93.8201 87.7143V79.1395H96.978V93.2463H94.2581L88.4263 84.6947V93.2463ZM106.379 93.4768C101.746 93.4768 99.4176 90.8722 99.4176 86.3773C99.4176 81.6751 101.723 78.9321 106.563 78.9321C108.154 78.9321 109.444 79.0934 110.597 79.5083V82.4818C109.444 82.0208 108.154 81.8364 106.794 81.8364C104.005 81.8364 102.622 83.3577 102.622 86.3773C102.622 89.1664 103.843 90.5494 106.379 90.5494C107.232 90.5494 108.108 90.3881 108.73 90.1576V87.3916H105.803V85.2479H111.358V92.2321C110.413 92.8545 108.845 93.4768 106.379 93.4768ZM125.188 93.4768C120.901 93.4768 118.619 91.1718 118.619 86.2621C118.619 81.0297 120.901 78.9321 125.188 78.9321C129.475 78.9321 131.734 81.0297 131.734 86.2621C131.734 91.1718 129.475 93.4768 125.188 93.4768ZM125.188 90.5494C127.493 90.5494 128.553 89.1664 128.553 86.2621C128.553 83.035 127.493 81.8364 125.188 81.8364C122.883 81.8364 121.823 83.035 121.823 86.2621C121.823 89.1664 122.883 90.5494 125.188 90.5494ZM137.341 93.2463H134.183V79.1395H136.88L142.735 87.7143V79.1395H145.892V93.2463H143.173L137.341 84.6947V93.2463ZM156.992 93.2463H153.834V79.1395H163.377V81.6751H156.992V84.8791H162.593V87.5068H156.992V93.2463ZM168.562 93.2463H165.404V79.1395H168.562V93.2463ZM177.961 93.4768C173.328 93.4768 171 90.8722 171 86.3773C171 81.6751 173.305 78.9321 178.145 78.9321C179.736 78.9321 181.027 79.0934 182.179 79.5083V82.4818C181.027 82.0208 179.736 81.8364 178.376 81.8364C175.587 81.8364 174.204 83.3577 174.204 86.3773C174.204 89.1664 175.425 90.5494 177.961 90.5494C178.814 90.5494 179.69 90.3881 180.312 90.1576V87.3916H177.385V85.2479H182.94V92.2321C181.995 92.8545 180.427 93.4768 177.961 93.4768ZM188.686 93.2463H185.528V79.1395H188.64L192.351 87.0458L196.016 79.1395H199.128V93.2463H195.993V84.9713L193.227 90.803H191.452L188.686 84.9713V93.2463ZM204.887 93.2463H201.591L206.662 79.1395H210.05L215.121 93.2463H211.871L210.65 89.9271H206.063L204.887 93.2463ZM208.368 82.4127L206.454 87.5068H210.258L208.368 82.4127ZM228.986 93.2463H225.852V81.6751H221.91V79.1395H232.951V81.6751H228.986V93.2463ZM238.186 93.2463H235.028V79.1395H241.551C244.686 79.1395 246.069 81.1219 246.069 83.934C246.069 85.9855 245.055 87.3916 243.441 88.0831C243.902 88.3136 244.087 88.6593 244.271 89.1434L245.977 93.2463H242.681L241.206 89.6044C240.929 88.9359 240.652 88.7285 239.753 88.7285H238.186V93.2463ZM238.186 81.8825V85.9855H240.745C242.105 85.9855 242.911 85.3631 242.911 83.934C242.911 82.5279 242.243 81.8825 240.929 81.8825H238.186ZM250.38 93.2463H247.084L252.155 79.1395H255.543L260.614 93.2463H257.364L256.143 89.9271H251.556L250.38 93.2463ZM253.861 82.4127L251.947 87.5068H255.751L253.861 82.4127ZM266.211 93.2463H263.053V79.1395H266.211V93.2463ZM272.221 93.2463H269.063V79.1395H271.76L277.615 87.7143V79.1395H280.773V93.2463H278.053L272.221 84.6947V93.2463ZM286.785 93.2463H283.627V79.1395H286.785V93.2463ZM292.795 93.2463H289.638V79.1395H292.334L298.189 87.7143V79.1395H301.347V93.2463H298.627L292.795 84.6947V93.2463ZM310.748 93.4768C306.115 93.4768 303.787 90.8722 303.787 86.3773C303.787 81.6751 306.092 78.9321 310.932 78.9321C312.523 78.9321 313.814 79.0934 314.966 79.5083V82.4818C313.814 82.0208 312.523 81.8364 311.163 81.8364C308.374 81.8364 306.991 83.3577 306.991 86.3773C306.991 89.1664 308.212 90.5494 310.748 90.5494C311.601 90.5494 312.477 90.3881 313.099 90.1576V87.3916H310.172V85.2479H315.727V92.2321C314.782 92.8545 313.214 93.4768 310.748 93.4768Z" fill="#F1B01C"/>
</g>
<line x1="10.9033" y1="103.597" x2="317.208" y2="103.597" stroke="#A8A8A8" stroke-width="0.513934"/>
<g clip-path="url(#clip1_360_465)">
<path d="M16.4197 125.99C16.4987 125.99 16.5777 126.053 16.5777 127.223C16.5777 128.36 16.4987 128.423 16.4197 128.423H15.7877C13.9075 128.423 12.9595 127.302 12.9595 125.374V118.264H15.2979V125.2C15.2979 125.753 15.4875 125.99 15.9615 125.99H16.4197ZM16.8804 125.99C17.3228 125.99 17.5282 125.816 17.5282 125.374V125.026C17.5282 122.972 18.7922 121.677 20.8146 121.677C22.837 121.677 23.9746 122.893 23.9746 125.058V125.279C23.9746 125.816 24.2116 125.99 24.6224 125.99H25.0806C25.1438 125.99 25.2386 126.053 25.2386 127.223C25.2386 128.36 25.1438 128.423 25.0806 128.423H24.654C23.785 128.423 23.1846 128.218 22.837 127.744C22.3314 128.218 21.5572 128.423 20.7198 128.423C19.7402 128.423 19.0608 128.139 18.7448 127.728C18.3498 128.218 17.7652 128.423 16.8804 128.423H16.4222C16.359 128.423 16.2642 128.36 16.2642 127.223C16.2642 126.069 16.359 125.99 16.4222 125.99H16.8804ZM21.7152 125.058C21.7152 124.347 21.3992 123.984 20.7356 123.984C20.0878 123.984 19.7718 124.347 19.7718 125.058C19.7718 125.69 20.0878 126.053 20.7356 126.053C21.415 126.053 21.7152 125.737 21.7152 125.058ZM26.1526 117.3L31.6668 115.151L32.0302 116.526L26.1526 118.817V117.3ZM29.0756 125.99C29.5812 125.99 29.8656 125.801 29.8656 125.516C29.8656 125.232 29.7234 125.011 29.439 124.726L26.1526 121.519V119.686L32.283 117.363L32.8992 119.639L29.1072 121.076L31.1928 123.162C33.784 125.753 34.2422 125.99 35.2692 125.99C35.3324 125.99 35.4272 126.053 35.4272 127.223C35.4272 128.36 35.3324 128.423 35.2692 128.423C33.5944 128.423 33.0098 128.218 31.967 127.144C31.5878 127.934 30.5766 128.423 29.281 128.423H25.0782C25.015 128.423 24.9202 128.36 24.9202 127.223C24.9202 126.069 25.015 125.99 25.0782 125.99H29.0756ZM41.1868 125.99C41.25 125.99 41.3448 126.053 41.3448 127.207C41.3448 128.36 41.25 128.423 41.1868 128.423H40.5706C39.749 128.423 39.1328 128.218 38.7852 127.728C38.3902 128.218 37.8056 128.423 36.9366 128.423H35.2618C35.1986 128.423 35.1038 128.36 35.1038 127.223C35.1038 126.069 35.1986 125.99 35.2618 125.99H36.9366C37.379 125.99 37.6476 125.769 37.6476 125.358V122.83H39.9702V125.311C39.9702 125.753 40.1914 125.99 40.6812 125.99H41.1868ZM38.5798 129.861V131.805H34.0294V129.861H38.5798ZM46.701 119.86H44.2678V117.901H46.701V119.86ZM42.7668 125.99H43.0986C42.5456 125.611 42.277 125.058 42.277 124.331C42.277 122.609 43.5252 121.108 45.5318 121.108C47.6174 121.108 48.7708 122.419 48.7708 124.663V125.232C48.7708 127.333 47.3014 128.423 44.647 128.423H41.1868C41.1236 128.423 41.0288 128.36 41.0288 127.223C41.0288 126.069 41.1236 125.99 41.1868 125.99H42.7668ZM46.2586 125.895C46.464 125.674 46.543 125.327 46.543 124.884V124.726C46.543 123.873 46.1796 123.399 45.5002 123.399C44.963 123.399 44.5522 123.826 44.5522 124.363C44.5522 125.026 45.0104 125.469 46.2586 125.895ZM67.0246 116.874V118.785H64.9706V116.874H67.0246ZM63.7224 121.408V119.449H68.2728V121.408H63.7224ZM68.731 122.83H71.022V125.327C71.022 127.254 69.8528 128.423 67.9252 128.423C66.9298 128.423 66.2978 128.171 65.9502 127.681C65.5868 128.171 65.018 128.423 64.149 128.423C63.6592 128.423 63.359 128.344 63.1694 128.234C62.9956 130.588 61.2892 132.152 58.7454 132.152H58.0818C55.3168 132.152 53.7526 130.462 53.7526 127.649V124.41H56.091V127.586C56.091 129.008 56.7072 129.719 58.1134 129.719H58.7454C60.12 129.719 60.91 129.008 60.91 127.776V122.83H63.201V125.263C63.201 125.706 63.4222 125.99 64.0384 125.99C64.5914 125.99 64.86 125.706 64.86 125.263V122.83H67.1668V125.263C67.1668 125.706 67.4038 125.99 67.941 125.99C68.4782 125.99 68.731 125.706 68.731 125.263V122.83ZM75.726 121.408H73.2928V119.449H75.726V121.408ZM75.726 127.744C75.726 130.351 74.067 132.152 71.4284 132.152H69.9432L69.7536 129.719H71.3336C72.645 129.719 73.3876 129.04 73.3876 127.776V122.83H75.726V127.744ZM85.1604 125.99C85.2236 125.99 85.3184 126.069 85.3184 127.223C85.3184 128.36 85.2236 128.423 85.1604 128.423H84.007C83.77 130.778 82.2374 132.152 79.9148 132.152H77.687L77.4974 129.751H80.1834C81.1788 129.751 81.7634 129.229 81.7634 128.423H80.8786C78.5244 128.423 77.6238 127.475 77.6238 125.342C77.6238 123.288 78.9194 121.835 80.847 121.835C82.8378 121.835 84.0544 123.178 84.0544 125.453V125.99H85.1604ZM79.899 125.232C79.899 125.832 80.1518 126.085 80.926 126.085H81.795V125.358C81.795 124.537 81.4316 124.11 80.7996 124.11C80.1992 124.11 79.899 124.584 79.899 125.232ZM85.6196 125.99C86.062 125.99 86.2674 125.816 86.2674 125.374V125.026C86.2674 122.972 87.5314 121.677 89.5538 121.677C91.5762 121.677 92.7138 122.893 92.7138 125.058C92.7138 127.175 91.4972 128.423 89.459 128.423C88.4794 128.423 87.8 128.139 87.484 127.728C87.089 128.218 86.5044 128.423 85.6196 128.423H85.1614C85.0982 128.423 85.0034 128.36 85.0034 127.223C85.0034 126.069 85.0982 125.99 85.1614 125.99H85.6196ZM90.4544 125.058C90.4544 124.347 90.1384 123.984 89.4748 123.984C88.827 123.984 88.511 124.347 88.511 125.058C88.511 125.69 88.827 126.053 89.4748 126.053C90.1542 126.053 90.4544 125.737 90.4544 125.058ZM95.2273 117.901C94.8165 117.901 94.5795 118.059 94.4689 118.359L94.0739 119.354L92.5887 118.691L93.1259 117.253C93.5367 116.178 94.0739 115.91 95.2747 115.91H99.1299V117.901H95.2273ZM95.3695 119.512H97.7079V128.423H95.3695V119.512ZM106.026 121.787V119.844H110.561V121.787H106.026ZM114.969 125.99C115.032 125.99 115.127 126.053 115.127 127.223C115.127 128.36 115.032 128.423 114.969 128.423H114.353C113.547 128.423 112.915 128.218 112.568 127.728C112.173 128.218 111.604 128.423 110.735 128.423H105.805C103.878 128.423 102.819 127.365 102.819 125.437V122.83H105.157V125.121C105.157 125.69 105.379 125.99 105.979 125.99H110.735C111.161 125.99 111.43 125.769 111.43 125.374V122.83H113.768V125.311C113.768 125.753 113.99 125.99 114.464 125.99H114.969ZM119.459 122.83H121.75V125.469C121.75 127.302 120.581 128.423 118.748 128.423H114.972C114.908 128.423 114.814 128.36 114.814 127.223C114.814 126.069 114.908 125.99 114.972 125.99H118.764C119.159 125.99 119.459 125.753 119.459 125.358V122.83ZM119.68 129.861V131.805H115.13V129.861H119.68ZM126.459 127.744C126.459 130.351 124.8 132.152 122.161 132.152H121.561L121.371 129.719H122.066C123.378 129.719 124.12 129.04 124.12 127.776V122.83H126.459V127.744ZM135.893 125.99C135.956 125.99 136.051 126.069 136.051 127.223C136.051 128.36 135.956 128.423 135.893 128.423H134.74C134.503 130.778 132.97 132.152 130.648 132.152H128.42L128.23 129.751H130.916C131.912 129.751 132.496 129.229 132.496 128.423H131.611C129.257 128.423 128.357 127.475 128.357 125.342C128.357 123.288 129.652 121.835 131.58 121.835C133.571 121.835 134.787 123.178 134.787 125.453V125.99H135.893ZM130.632 125.232C130.632 125.832 130.885 126.085 131.659 126.085H132.528V125.358C132.528 124.537 132.164 124.11 131.532 124.11C130.932 124.11 130.632 124.584 130.632 125.232ZM137.032 123.826L137.269 121.44H141.14C142.862 121.44 143.747 122.198 144.458 125.058L143.494 125.69C143.62 125.895 144.205 125.99 144.584 125.99H145.532C145.595 125.99 145.69 126.101 145.69 127.223C145.69 128.408 145.595 128.423 145.532 128.423H144.395C143.225 128.423 142.499 128.028 141.867 126.97L141.282 127.333C139.939 128.171 138.817 128.423 136.984 128.423H135.894C135.831 128.423 135.736 128.36 135.736 127.223C135.736 126.069 135.831 125.99 135.894 125.99H137.095C138.612 125.99 139.544 125.832 140.729 125.232L141.74 124.647C141.566 123.999 141.266 123.826 140.634 123.826H137.032ZM145.996 125.99C146.438 125.99 146.644 125.816 146.644 125.374V125.026C146.644 122.972 147.908 121.677 149.93 121.677C151.953 121.677 153.09 122.893 153.09 125.058C153.09 127.175 151.874 128.423 149.835 128.423C148.856 128.423 148.176 128.139 147.86 127.728C147.465 128.218 146.881 128.423 145.996 128.423H145.538C145.475 128.423 145.38 128.36 145.38 127.223C145.38 126.069 145.475 125.99 145.538 125.99H145.996ZM150.831 125.058C150.831 124.347 150.515 123.984 149.851 123.984C149.203 123.984 148.887 124.347 148.887 125.058C148.887 125.69 149.203 126.053 149.851 126.053C150.531 126.053 150.831 125.737 150.831 125.058ZM161.659 125.99C161.738 125.99 161.817 126.053 161.817 127.223C161.817 128.36 161.738 128.423 161.659 128.423H161.027C159.147 128.423 158.199 127.302 158.199 125.374V118.264H160.538V125.2C160.538 125.753 160.727 125.99 161.201 125.99H161.659ZM166.149 125.469C166.149 127.302 164.98 128.423 163.147 128.423H161.662C161.599 128.423 161.504 128.36 161.504 127.223C161.504 126.069 161.599 125.99 161.662 125.99H163.147C163.558 125.99 163.858 125.753 163.858 125.358V122.83H166.149V125.469ZM164.142 131.805H161.709V129.861H164.142V131.805ZM178.837 128.439C178.837 128.06 178.584 127.886 178.173 127.886H175.155V124.695C175.155 122.767 176.356 121.471 178.284 121.471H180.575L180.717 123.826H178.315C177.825 123.826 177.478 124.157 177.478 124.679V125.485H178.552C180.448 125.485 181.159 126.512 181.159 128.171C181.159 130.351 179.295 132.152 176.672 132.152H175.455C172.69 132.152 171.126 130.462 171.126 127.649V124.41H173.465V127.586C173.465 129.008 174.081 129.719 175.487 129.719H176.735C178.173 129.719 178.837 129.198 178.837 128.439ZM182.227 129.719C183.538 129.719 184.281 129.04 184.281 127.776V122.83H186.619V125.232C186.619 125.769 186.856 125.99 187.409 125.99H187.804C187.867 125.99 187.962 126.101 187.962 127.223C187.962 128.344 187.867 128.423 187.804 128.423H187.536C187.156 128.423 186.809 128.329 186.603 128.155C186.445 130.446 184.897 132.152 182.322 132.152H181.721L181.532 129.719H182.227ZM192.287 125.469C192.287 127.302 191.118 128.423 189.285 128.423H187.8C187.736 128.423 187.642 128.36 187.642 127.223C187.642 126.069 187.736 125.99 187.8 125.99H189.285C189.696 125.99 189.996 125.753 189.996 125.358V122.83H192.287V125.469ZM190.28 131.805H187.847V129.861H190.28V131.805ZM197.188 127.744C197.188 130.351 195.529 132.152 192.891 132.152H192.29L192.101 129.719H192.796C194.107 129.719 194.85 129.04 194.85 127.776V122.83H197.188V127.744ZM202.61 125.99C202.689 125.99 202.768 126.053 202.768 127.223C202.768 128.36 202.689 128.423 202.61 128.423H201.978C200.098 128.423 199.15 127.302 199.15 125.374V118.264H201.488V125.2C201.488 125.753 201.678 125.99 202.152 125.99H202.61ZM206.61 125.99C207.115 125.99 207.4 125.801 207.4 125.516C207.4 125.232 207.257 125.011 206.973 124.726L203.687 121.519V119.686L209.817 117.363L210.433 119.639L206.641 121.076L208.727 123.162C209.627 124.047 209.912 124.821 209.912 125.737C209.912 127.412 208.727 128.423 206.815 128.423H202.612C202.549 128.423 202.454 128.36 202.454 127.223C202.454 126.069 202.549 125.99 202.612 125.99H206.61ZM218.227 122.909C219.033 121.93 219.95 121.55 220.834 121.55C222.683 121.55 223.947 122.925 223.947 124.932C223.947 125.279 223.915 125.579 223.805 125.88C223.994 125.974 224.279 125.99 224.658 125.99H225.053C225.116 125.99 225.211 126.053 225.211 127.223C225.211 128.36 225.116 128.423 225.053 128.423H224.658C223.757 128.423 223.141 128.265 222.604 127.776C222.035 128.186 221.277 128.423 220.408 128.423H215.02L214.83 125.99H215.889V118.264H218.227V122.909ZM220.439 126.022C221.198 126.022 221.64 125.611 221.64 124.932C221.64 124.315 221.229 123.873 220.645 123.873C219.934 123.873 219.144 124.616 218.117 126.022H220.439ZM229.534 125.469C229.534 127.302 228.365 128.423 226.532 128.423H225.047C224.984 128.423 224.889 128.36 224.889 127.223C224.889 126.069 224.984 125.99 225.047 125.99H226.532C226.943 125.99 227.243 125.753 227.243 125.358V122.83H229.534V125.469ZM227.528 131.805H225.094V129.861H227.528V131.805ZM231.49 128.423V118.264H233.829V128.423H231.49ZM238.725 127.744C238.725 130.351 237.066 132.152 234.428 132.152H232.942L232.753 129.719H234.333C235.644 129.719 236.387 129.04 236.387 127.776V122.83H238.725V127.744ZM247.942 128.25L248.132 125.99H254.704C254.768 125.99 254.862 126.069 254.862 127.223C254.862 128.36 254.768 128.423 254.704 128.423H253.519C253.567 128.487 253.598 128.613 253.598 128.755C253.535 130.762 251.797 132.152 249.222 132.152H248.037C245.272 132.152 243.708 130.462 243.708 127.649V124.41H246.046V127.586C246.046 129.008 246.662 129.719 248.068 129.719H249.348C250.786 129.719 251.307 129.371 251.307 128.755C251.307 128.408 251.134 128.25 250.707 128.25H247.942ZM255.904 125.99C257.42 125.99 258.353 125.832 259.538 125.232L260.549 124.647C260.375 123.999 260.075 123.826 259.443 123.826H255.84L256.077 121.44H259.948C261.829 121.44 262.65 122.372 263.345 125.374L260.091 127.333C258.748 128.171 257.626 128.423 255.793 128.423H254.703C254.64 128.423 254.545 128.36 254.545 127.223C254.545 126.069 254.64 125.99 254.703 125.99H255.904ZM264.957 128.423V118.264H267.296V128.423H264.957ZM272.192 125.232C272.192 125.769 272.429 125.99 272.982 125.99H273.377C273.44 125.99 273.535 126.101 273.535 127.223C273.535 128.344 273.44 128.423 273.377 128.423H273.109C272.729 128.423 272.382 128.329 272.176 128.155C272.018 130.446 270.47 132.152 267.895 132.152H266.409L266.22 129.719H267.8C269.111 129.719 269.854 129.04 269.854 127.776V122.83H272.192V125.232ZM274.479 125.99V118.264H276.817V122.909C277.623 121.93 278.539 121.55 279.424 121.55C281.257 121.55 282.521 122.925 282.521 124.932C282.521 127.049 281.162 128.423 278.998 128.423H273.373C273.31 128.423 273.215 128.36 273.215 127.223C273.215 126.069 273.31 125.99 273.373 125.99H274.479ZM279.029 126.022C279.788 126.022 280.23 125.611 280.23 124.932C280.23 124.315 279.819 123.873 279.235 123.873C278.524 123.873 277.734 124.616 276.707 126.022H279.029ZM287.512 125.564C287.512 124.489 288.002 123.446 289.235 122.182L288.555 121.487L290.214 119.781C293.469 122.672 294.117 123.905 294.117 125.406C294.117 127.254 292.742 128.581 290.688 128.581C288.729 128.581 287.512 127.365 287.512 125.564ZM291.857 125.342C291.857 124.789 291.605 124.315 290.815 123.652C290.088 124.315 289.788 124.837 289.788 125.39C289.788 125.848 290.151 126.211 290.767 126.211C291.431 126.211 291.857 125.848 291.857 125.342ZM298.824 127.744C298.824 130.351 297.165 132.152 294.526 132.152H293.041L292.851 129.719H294.431C295.743 129.719 296.485 129.04 296.485 127.776V122.83H298.824V127.744ZM307.152 127.697C307.152 130.493 305.572 132.152 303.013 132.152H300.785L300.595 129.751H303.281C304.277 129.751 304.861 129.229 304.861 128.423H303.976C301.622 128.423 300.722 127.475 300.722 125.342C300.722 123.288 302.017 121.835 303.945 121.835C305.936 121.835 307.152 123.178 307.152 125.453V127.697ZM302.997 125.232C302.997 125.832 303.25 126.085 304.024 126.085H304.893V125.358C304.893 124.537 304.529 124.11 303.897 124.11C303.297 124.11 302.997 124.584 302.997 125.232ZM310.618 121.677L312.324 119.986L315.074 123.273C315.927 124.284 316.164 125.011 316.164 125.801C316.164 127.317 315.074 128.423 313.13 128.423H308.833L308.643 125.99H312.83C313.32 125.99 313.62 125.816 313.62 125.516C313.62 125.263 313.494 125.074 313.209 124.726L310.618 121.677Z" fill="#F1B01C"/>
<path d="M16.8326 150.129H14.9373V148.645H16.8326V150.129ZM15.7598 160.786C12.738 160.786 11.0752 158.944 11.0752 155.833V152.454H12.5592V155.798C12.5592 158.05 13.6678 159.248 15.7956 159.248H16.5466C18.5849 159.248 19.9259 157.979 19.9259 155.941V150.666H21.41V155.798C21.41 158.927 19.3895 160.786 16.5466 160.786H15.7598ZM27.691 154.886C27.7804 154.886 27.8698 154.957 27.8698 155.672C27.8698 156.37 27.7804 156.423 27.691 156.423H27.2261C25.3845 156.423 24.4547 155.261 24.4547 153.294V144.855H25.9388V153.223C25.9388 154.331 26.3858 154.886 27.2977 154.886H27.691ZM34.7803 154.886C34.8518 154.886 34.9591 154.957 34.9591 155.654C34.9591 156.37 34.8518 156.423 34.7803 156.423H34.226C33.1711 156.423 32.4201 156.084 32.0804 155.368C31.6512 156.084 30.8645 156.423 29.8453 156.423H27.6997C27.6282 156.423 27.5209 156.37 27.5209 155.672C27.5209 154.957 27.6282 154.886 27.6997 154.886H29.8453C30.7572 154.886 31.3652 154.385 31.3652 153.562V150.666H32.8492V153.527C32.8492 154.421 33.3499 154.886 34.2796 154.886H34.7803ZM31.383 158.676V160.107H26.6626V158.676H31.383ZM37.2922 146.732V145.32H42.0126V146.732H37.2922ZM39.7418 148.61C41.9232 148.61 43.1927 150.022 43.1927 152.454V153.062C43.1927 155.297 41.6729 156.423 38.812 156.423H34.789C34.7174 156.423 34.6101 156.37 34.6101 155.672C34.6101 154.957 34.7174 154.886 34.789 154.886H37.9538C38.2577 154.886 38.6332 154.868 38.8657 154.814C36.9346 154.099 36.3088 153.384 36.3088 152.007C36.3088 150.094 37.7571 148.61 39.7418 148.61ZM41.7086 152.972V152.543C41.7086 150.916 41.0113 150.112 39.706 150.112C38.6511 150.112 37.7928 150.952 37.7928 151.971C37.7928 153.115 38.4902 153.706 41.0649 154.546C41.4762 154.206 41.7086 153.688 41.7086 152.972ZM48.3566 148.467L49.4116 147.412L52.8446 151.363C53.6492 152.275 53.9174 153.026 53.9174 153.777C53.9174 155.315 52.8267 156.423 50.7884 156.423H45.6925L45.5494 154.886H50.7884C51.8433 154.886 52.4333 154.439 52.4333 153.759C52.4333 153.33 52.2188 152.919 51.7002 152.311L48.3566 148.467ZM60.1864 154.886C60.2758 154.886 60.3652 154.957 60.3652 155.672C60.3652 156.37 60.2758 156.423 60.1864 156.423H59.7215C57.8799 156.423 56.9501 155.261 56.9501 153.294V144.855H58.4341V153.223C58.4341 154.331 58.8812 154.886 59.7931 154.886H60.1864ZM60.9103 154.886C61.9831 154.886 62.5732 154.331 62.5732 153.473V150.666H64.0572V153.419C64.0572 154.153 64.3254 154.51 64.8261 154.689C67.079 150.666 68.8492 149.075 70.8339 149.075C72.7828 149.075 74.2133 150.594 74.2133 152.758C74.2133 154.939 72.7649 156.423 70.4584 156.423H65.6843C64.397 156.423 63.6281 156.066 63.2526 155.368C62.8235 156.084 62.0368 156.423 60.9103 156.423H60.1951C60.1236 156.423 60.0163 156.37 60.0163 155.672C60.0163 154.957 60.1236 154.886 60.1951 154.886H60.9103ZM70.4584 154.886C71.9067 154.886 72.7292 154.063 72.7292 152.758C72.7292 151.453 71.8709 150.559 70.7266 150.559C69.3677 150.559 68.0267 151.935 66.2923 154.886H70.4584ZM84.7544 154.886C84.8438 154.886 84.9332 154.957 84.9332 155.672C84.9332 156.37 84.8438 156.423 84.7544 156.423H84.2895C82.4478 156.423 81.5181 155.261 81.5181 153.294V144.855H83.0021V153.223C83.0021 154.331 83.4491 154.886 84.361 154.886H84.7544ZM86.1577 154.886C87.2305 154.886 87.8206 154.331 87.8206 153.473V150.666H89.3225V153.473C89.3225 154.367 89.8232 154.886 90.9139 154.886C91.9867 154.886 92.5768 154.331 92.5768 153.473V150.666H94.0608V153.473C94.0608 154.367 94.5794 154.886 95.5807 154.886C96.582 154.886 97.1184 154.367 97.1184 153.473V150.666H98.6024V153.437C98.6024 155.315 97.4223 156.423 95.5807 156.423C94.3469 156.423 93.5959 156.03 93.2562 155.315C92.8271 156.03 92.0404 156.423 90.9139 156.423C89.5907 156.423 88.8398 156.03 88.5 155.315C88.0709 156.03 87.2842 156.423 86.1577 156.423H84.7631C84.6915 156.423 84.5843 156.37 84.5843 155.672C84.5843 154.957 84.6915 154.886 84.7631 154.886H86.1577ZM104.056 155.905C104.056 158.927 102.143 160.786 99.3716 160.786H98.12L97.9769 159.248H99.3358C101.356 159.248 102.572 158.015 102.572 155.905V150.666H104.056V155.905ZM110.335 154.886C110.425 154.886 110.514 154.957 110.514 155.672C110.514 156.37 110.425 156.423 110.335 156.423H109.87C108.029 156.423 107.099 155.261 107.099 153.294V144.855H108.583V153.223C108.583 154.331 109.03 154.886 109.942 154.886H110.335ZM113.652 150.666H115.136V153.58C115.136 155.368 113.956 156.423 112.203 156.423H110.344C110.272 156.423 110.165 156.37 110.165 155.672C110.165 154.957 110.272 154.886 110.344 154.886H112.203C113.044 154.886 113.652 154.421 113.652 153.562V150.666ZM114.134 158.676V160.107H109.414V158.676H114.134ZM110.987 162.538V161.144H112.561V162.538H110.987ZM121.25 159.248C123.27 159.248 124.486 158.015 124.486 155.905V150.666H125.97V153.509C125.97 154.385 126.489 154.886 127.472 154.886H127.704C127.776 154.886 127.883 154.975 127.883 155.672C127.883 156.37 127.776 156.423 127.704 156.423H127.472C126.828 156.423 126.22 156.173 125.97 155.815V156.03C125.916 158.927 124.057 160.786 121.285 160.786H120.785L120.642 159.248H121.25ZM129.381 154.886V144.855H130.865V152.454C132.439 150.022 133.869 149.075 135.299 149.075C137.231 149.075 138.661 150.594 138.661 152.758C138.661 153.419 138.536 153.992 138.25 154.492C138.589 154.796 139.09 154.886 139.877 154.886H140.288C140.36 154.886 140.467 154.957 140.467 155.672C140.467 156.37 140.36 156.423 140.288 156.423H139.877C138.679 156.423 138.017 156.245 137.427 155.619C136.784 156.137 135.925 156.423 134.924 156.423H127.7C127.629 156.423 127.521 156.37 127.521 155.672C127.521 154.957 127.629 154.886 127.7 154.886H129.381ZM136.229 147.161H134.352V145.677H136.229V147.161ZM134.924 154.886C136.354 154.886 137.177 154.063 137.177 152.758C137.177 151.453 136.319 150.559 135.192 150.559C133.815 150.559 132.492 151.935 130.758 154.886H134.924ZM144.259 148.52H142.364V147.036H144.259V148.52ZM145.082 153.58C145.082 155.368 143.902 156.423 142.149 156.423H140.29C140.218 156.423 140.111 156.37 140.111 155.672C140.111 154.957 140.218 154.886 140.29 154.886H142.149C142.99 154.886 143.598 154.421 143.598 153.562V150.666H145.082V153.58ZM151.196 159.248C153.216 159.248 154.432 158.015 154.432 155.905V150.666H155.916V153.509C155.916 154.385 156.435 154.886 157.418 154.886H157.651C157.722 154.886 157.829 154.975 157.829 155.672C157.829 156.37 157.722 156.423 157.651 156.423H157.418C156.774 156.423 156.166 156.173 155.916 155.815V156.03C155.863 158.927 154.003 160.786 151.232 160.786H150.731L150.588 159.248H151.196ZM163.386 150.666H164.888V153.58C164.888 155.368 163.708 156.423 161.956 156.423H157.646C157.575 156.423 157.468 156.37 157.468 155.672C157.468 154.957 157.575 154.886 157.646 154.886H161.956C162.796 154.886 163.386 154.421 163.386 153.562V150.666ZM162.546 158.676V160.107H157.825V158.676H162.546ZM170.393 148.52H168.498V147.036H170.393V148.52ZM170.322 155.905C170.322 158.927 168.408 160.786 165.637 160.786H165.136L164.993 159.248H165.601C167.622 159.248 168.838 158.015 168.838 155.905V150.666H170.322V155.905ZM183.191 156.96H181.707V144.318H183.191V156.96ZM193.592 159.248C195.612 159.248 196.828 158.015 196.828 155.905V150.666H198.312V153.509C198.312 154.385 198.831 154.886 199.814 154.886H200.046C200.118 154.886 200.225 154.975 200.225 155.672C200.225 156.37 200.118 156.423 200.046 156.423H199.814C199.17 156.423 198.562 156.173 198.312 155.815V156.03C198.258 158.927 196.399 160.786 193.627 160.786H193.127L192.984 159.248H193.592ZM205.979 146.911H204.083V145.427H205.979V146.911ZM202.903 154.886C202.099 154.331 201.598 153.384 201.598 152.4C201.598 150.505 203.082 149.003 205.031 149.003C207.033 149.003 208.428 150.362 208.428 152.311C208.428 153.384 207.981 154.242 207.033 154.886H209.984C210.055 154.886 210.163 154.957 210.163 155.672C210.163 156.37 210.055 156.423 209.984 156.423H207.606C206.157 156.423 205.514 156.352 205.067 156.137C204.62 156.352 203.887 156.423 202.456 156.423H200.042C199.971 156.423 199.863 156.37 199.863 155.672C199.863 154.957 199.971 154.886 200.042 154.886H202.903ZM205.031 150.505C203.887 150.505 203.082 151.31 203.082 152.4C203.082 153.437 203.779 154.296 205.031 154.85C206.354 154.26 206.944 153.348 206.944 152.4C206.944 151.256 206.211 150.505 205.031 150.505ZM213.947 148.52H212.052V147.036H213.947V148.52ZM214.77 153.58C214.77 155.368 213.59 156.423 211.837 156.423H209.978C209.906 156.423 209.799 156.37 209.799 155.672C209.799 154.957 209.906 154.886 209.978 154.886H211.837C212.678 154.886 213.286 154.421 213.286 153.562V150.666H214.77V153.58ZM225.282 156.423C224.603 152.275 223.387 149.021 221.348 145.82L222.582 144.944C224.299 147.626 225.497 150.612 226.015 153.616C226.534 150.612 227.607 147.626 229.341 144.944L230.611 145.82C228.679 148.788 227.481 152.061 226.677 156.423H225.282ZM247.221 156.96H245.737V144.318H247.221V156.96ZM269.661 153.098C269.661 154.385 270.125 154.886 270.966 154.886H271.395C271.484 154.886 271.574 154.957 271.574 155.672C271.574 156.37 271.484 156.423 271.395 156.423H270.966C269.714 156.423 268.856 155.923 268.57 154.725C268.033 155.297 266.996 155.547 266.013 155.547C264.01 155.547 262.884 154.457 262.884 152.311C262.884 150.308 264.279 148.663 266.371 148.663H268.177V147.43H269.661V153.098ZM264.368 152.275C264.368 153.419 264.922 154.009 266.102 154.009C267.372 154.009 268.177 153.509 268.177 152.722V150.165H266.371C265.137 150.165 264.368 150.916 264.368 152.275ZM272.784 154.886C273.856 154.886 274.446 154.331 274.446 153.473V150.666H275.948V153.473C275.948 154.367 276.449 154.886 277.54 154.886C278.613 154.886 279.203 154.331 279.203 153.473V150.666H280.687V153.473C280.687 154.367 281.205 154.886 282.207 154.886C283.208 154.886 283.744 154.331 283.744 153.473V150.666H285.228V153.473C285.228 154.421 285.729 154.886 286.641 154.886H287.159C287.249 154.886 287.356 154.957 287.356 155.672C287.356 156.37 287.249 156.423 287.159 156.423H286.641C285.514 156.423 284.763 156.084 284.424 155.368C283.995 156.084 283.244 156.423 282.207 156.423C280.973 156.423 280.222 156.03 279.882 155.315C279.453 156.03 278.666 156.423 277.54 156.423C276.217 156.423 275.466 156.03 275.126 155.315C274.697 156.03 273.91 156.423 272.784 156.423H271.389C271.317 156.423 271.21 156.37 271.21 155.672C271.21 154.957 271.317 154.886 271.389 154.886H272.784ZM287.728 154.886C288.569 154.886 289.159 154.385 289.159 153.562V144.855H290.661V153.473C290.661 154.492 291.269 154.886 292.037 154.886H292.484C292.556 154.886 292.663 154.957 292.663 155.654C292.663 156.37 292.556 156.423 292.484 156.423H291.984C290.947 156.423 290.196 156.048 289.91 155.351C289.498 156.048 288.747 156.423 287.728 156.423H287.174C287.102 156.423 286.995 156.37 286.995 155.672C286.995 154.957 287.102 154.886 287.174 154.886H287.728ZM293.734 154.886C295.54 154.886 296.559 154.635 297.81 153.92L300.528 152.329C300.153 151.023 299.563 150.612 298.275 150.612H294.091L294.288 149.057H298.526C300.653 149.057 301.583 150.004 302.263 152.829L298.508 155.154C296.988 156.101 295.79 156.423 293.68 156.423H292.482C292.411 156.423 292.303 156.37 292.303 155.672C292.303 154.957 292.411 154.886 292.482 154.886H293.734ZM297.685 160.178H295.79V158.676H297.685V160.178ZM305.118 156.423V151.703C305.118 149.396 304.939 148.02 304.224 145.534L305.672 145.034C306.423 147.483 306.602 148.878 306.602 151.685V156.423H305.118ZM313.06 150.88C312.416 150.88 311.898 150.684 311.665 150.326C311.683 150.72 311.683 151.22 311.683 151.685V156.423H310.199V151.703C310.199 149.396 310.02 148.02 309.305 145.534L310.735 145.034L311.54 148.163C311.755 148.967 312.255 149.343 312.953 149.343C313.704 149.343 314.329 148.806 314.329 148.091C314.329 147.626 314.24 146.875 313.99 145.355L315.474 145.034C315.688 146.357 315.831 147.394 315.831 148.109C315.831 149.718 314.651 150.88 313.06 150.88Z" fill="white"/>
</g>
<rect x="3.73923" y="21.9319" width="320.633" height="150.451" stroke="black" stroke-width="0.622982"/>
<rect x="321.459" y="18.5053" width="6.22982" height="6.22982" fill="white" stroke="black" stroke-width="0.622982"/>
<rect x="321.459" y="167.71" width="6.22982" height="6.22982" fill="white" stroke="black" stroke-width="0.622982"/>
<rect x="0.311491" y="18.5051" width="6.22982" height="6.22982" fill="white" stroke="black" stroke-width="0.622982"/>
<rect x="0.311491" y="167.71" width="6.22982" height="6.22982" fill="white" stroke="black" stroke-width="0.622982"/>
<path d="M12.5602 3.47659L11.675 2.22977L11.3539 3.72475L8.9976 14.6961L8.68242 16.1637L9.98755 15.4223L20.051 9.70614L21.5001 8.88302L19.8856 8.46955L15.2646 7.28608L12.5602 3.47659Z" fill="#F1B01C" stroke="black" stroke-width="1.3454" stroke-linecap="square"/>
<defs>
<clipPath id="clip0_360_465">
<rect width="306.196" height="64.7901" fill="white" transform="translate(10.958 29.0962)"/>
</clipPath>
<clipPath id="clip1_360_465">
<rect width="306.305" height="51.3969" fill="white" transform="translate(10.9033 113.822)"/>
</clipPath>
</defs>
</svg>
